<svg xmlns="http://www.w3.org/2000/svg" xmlns:xlink="http://www.w3.org/1999/xlink" version="1.1" id="Capa_1" x="0px" y="0px" width="512px" height="512px" viewBox="0 0 472.89 472.89" style="enable-background:new 0 0 472.89 472.89;" xml:space="preserve">
	<path d="M466.851,152.328c-7.754-6.813-16.133-12.835-24.902-18.169c2.119-1.104,3.957-2.805,5.191-5.06    c3.313-6.056,1.092-13.651-4.965-16.966c-12.987-7.108-26.632-12.857-40.144-17.51c14.896-38.379,9.295-64.332,0.586-86.661    c-2.509-6.432-9.762-9.612-16.188-7.104c-6.433,2.509-9.612,9.757-7.104,16.188c8.18,20.972,10.752,40.695-1.287,70.339    c-16.803-4.407-32.604-7.258-45.717-9.091c-6.834-0.954-13.154,3.813-14.111,10.649c-0.351,2.506,0.074,4.938,1.082,7.066    c-20.557-2.368-36.44-2.673-43.187-2.673c-1.532,0-2.343,0.018-2.343,0.018c-6.268,0.138-11.479,4.909-12.164,11.141    c-0.062,0.554-6.502,56.157-40.928,126.189c-31.641,64.362-94.162,154.554-212.345,218.721c-5.026,2.729-7.56,8.523-6.148,14.067    c1.41,5.54,6.397,9.418,12.114,9.418h0.011c3.392-0.003,84.18-0.509,181.146-38.294c57.062-22.235,107.796-52.845,150.794-90.978    c53.81-47.72,95.506-107.336,123.933-177.191C472.183,161.5,470.848,155.841,466.851,152.328z M187.219,410.974    c-45.946,17.993-88.622,27.22-120.088,31.947c35.786-24.197,68.027-52.132,96.26-83.435    c32.078-35.567,59.062-75.526,80.205-118.768c27.144-55.515,37.555-101.71,41.159-122.213    c27.514,0.965,107.263,7.244,158.735,46.956C393.978,281.177,307.8,363.748,187.219,410.974z"/>
	<path d="M232.905,315.924c2.374,2.085,5.314,3.107,8.243,3.107c3.473,0,6.927-1.438,9.396-4.251    c2.366-2.694,58.204-67.123,78.145-163.75c1.396-6.762-2.955-13.373-9.716-14.769c-6.771-1.397-13.374,2.954-14.77,9.716    c-18.536,89.829-71.829,151.602-72.448,152.312C227.207,303.478,227.72,311.37,232.905,315.924z"/>
</svg>
