<svg viewBox="0 0 10 10" xmlns="http://www.w3.org/2000/svg">
  <path d="m4.9997 9.9969e-6a5.0001 5.0001 0 0 0 -4.9997 4.9997 5.0001 5.0001 0 0 0 1.2392 3.2863c0.83801-0.56785 0.27119-1.4659 0.18893-1.8781-0.12536-0.62937 0.26683-1.0351 0.60158-1.2056-0.26888 0.73215 0.42735 1.1805 0.7818 0.84892 0.70162-0.65642-1.0367-1.6333-1.1-2.7581-0.024182-0.42923 0.34461-0.99434 0.95457-1.2728-0.59664 0.98098-0.23705 1.3367-0.039774 1.4984 0.15114 0.12378 0.60006 0.24451 0.5065-0.33746 0.50974 0.38724-0.028261 0.90433 0.23616 1.2187 0.20014 0.24596 0.52107 0.19361 0.65502 0.0596 0.6306-0.63066-0.47365-1.0328 0.55124-2.1211-3.118e-4 0.87024 0.41446 1.2882 0.62892 0.65564 0.00481-0.0751 0.00684-0.14845 0.00684-0.21813 0.00764-0.43497 0.31055-1.0739 1.1137-1.0739 0.20905 0 0.39709 0.0697 0.55745 0.18209 0.061092-0.19186 0.16787-0.41418 0.36356-0.614 0.16396-0.16735 0.36436-0.2944 0.59847-0.38158a5.0001 5.0001 0 0 0 -2.8445 -0.88864zm3.4628 1.4002c-0.33048 0.0349-0.5888 0.13827-0.76254 0.31507-0.1069 0.10908-0.16842 0.23088-0.2057 0.33747 0.082726-0.0197 0.16968-0.0324 0.26288-0.0324 0.75506 0 0.95457 0.8327 0.95457 1.2728 0 1.5423-0.5073 2.8102-1.5071 3.7679-1.562 1.4952-3.9045 1.8534-5.1992 1.9359a5.0001 5.0001 0 0 0 2.9942 1.0031 5.0001 5.0001 0 0 0 5.0003 -5.0003 5.0001 5.0001 0 0 0 -1.5375 -3.5995zm-2.1372 0.93841c-0.44675 0-0.47608 0.36927-0.47729 0.44373v0.0871h-0.00249c-0.036271 1.6024-1.0163 4.0091-2.8774 5.0295-0.3866 0.26059-0.73951 0.39679-1.0329 0.46423 1.2044-0.0795 3.423-0.41459 4.8307-1.7637 0.86866-0.83302 1.3088-1.9453 1.3088-3.3062 0-6e-3 -0.017831-0.63547-0.31757-0.63637h-6.204e-4c-0.28449 2.9e-4 -0.31757 0.18178-0.31757 0.31818h-0.63638c0-0.25041-0.20523-0.63638-0.47729-0.63638z" fill="#ff8b6b"/>
</svg>
